<svg width="1800" height="850" viewBox="0 0 1800 850" fill="none" xmlns="http://www.w3.org/2000/svg">
<g style="mix-blend-mode:color" clip-path="url(#clip0)">
<path d="M1800 850H0V170.087V0H1800V850Z" fill="#88C7D0"/>
<path d="M461.029 174.214H-12.103V146.459C-12.103 146.459 7.34083 120.438 66.9685 138.913C66.9685 138.913 85.116 96.1527 142.151 93.8109C199.186 91.4691 218.241 119.831 218.241 119.831C218.241 119.831 229.519 107.688 272.684 111.158C315.849 114.627 328.034 144.117 328.034 144.117C328.034 144.117 340.996 132.581 374.699 141.255C408.402 149.928 417.605 166.148 417.605 166.148L461.029 174.214Z" fill="#B9E6EA"/>
<path fill-rule="evenodd" clip-rule="evenodd" d="M684.441 157.089C601.351 96.7221 449.689 89.3496 350.915 140.87L-2.44366 325.442V424.753H1052.84L684.441 157.089Z" fill="#085D87"/>
<path d="M687.334 248.075H1131.73L1034.26 240.239C1034.26 240.239 1031.35 228.456 1012.51 224.155C993.755 219.854 976.673 228.456 976.673 228.456C976.673 228.456 979.578 213.55 951.402 208.424C923.225 203.298 909.401 217.438 909.401 217.438C909.401 217.438 900.86 206.951 884.482 207.305C868.016 207.658 858.067 218.617 858.067 218.617C858.067 218.617 838.695 219.795 833.412 223.33C828.129 226.865 826.984 233.523 826.984 233.523L687.334 248.075Z" fill="#B9E6EA"/>
<path fill-rule="evenodd" clip-rule="evenodd" d="M1028.6 407.146L684.441 157.089C643.998 127.686 587.352 110.86 528.372 107.304C538.612 122.482 546.52 145.64 534.205 175.911C510.873 233.156 350.008 340.707 345.471 415.299C345.341 418.508 345.73 421.717 346.767 424.839H987.635L1028.6 407.146Z" fill="#08506D"/>
<path d="M968.053 73.7245H1627.79L1483.09 62.2246C1483.09 62.2246 1478.77 44.9315 1450.8 38.6195C1422.82 32.3075 1397.6 44.9315 1397.6 44.9315C1397.6 44.9315 1401.91 23.0557 1360.08 15.5332C1318.25 8.01074 1297.73 28.7625 1297.73 28.7625C1297.73 28.7625 1285.05 13.3716 1260.73 13.8904C1236.29 14.4092 1221.52 30.4918 1221.52 30.4918C1221.52 30.4918 1192.76 32.2211 1184.92 37.409C1177.07 42.5969 1175.37 52.3675 1175.37 52.3675L968.053 73.7245Z" fill="#B9E6EA"/>
<path fill-rule="evenodd" clip-rule="evenodd" d="M1490.45 207.135C1397.25 159.344 1251.55 157.263 1153.81 202.452L562.723 475.579H1812.31V372.191L1490.45 207.135Z" fill="#1176B5"/>
<path fill-rule="evenodd" clip-rule="evenodd" d="M1812.31 372.191L1490.45 207.135C1448.84 185.799 1396.73 173.569 1343.2 170.62C1357.2 183.89 1383.9 214.941 1374.18 251.37C1361.21 299.941 1219.92 360.656 1187.52 445.656C1183.76 455.457 1184.15 465.518 1187.91 475.666H1812.31V372.191Z" fill="#0D638E"/>
<path fill-rule="evenodd" clip-rule="evenodd" d="M-2.44366 354.584C-2.44366 354.584 177.865 258.309 288.695 258.309C399.524 258.309 504.521 404.023 677.571 404.023C850.62 404.023 916.729 318.156 1031.45 318.156C1146.17 318.156 1340.47 485.467 1433.8 485.467C1484.36 485.467 1490.32 485.467 1490.32 485.467H1812.31V660.324H-2.44366V354.584Z" fill="#1296A0"/>
<path fill-rule="evenodd" clip-rule="evenodd" d="M459.301 618.505C534.484 572.362 601.5 462.469 648.165 444.255C694.83 426.041 757.31 404.184 677.849 404.184C505.318 404.184 400.451 259.423 290.01 258.469C297.658 270.699 313.991 307.128 275.233 355.525C227.272 415.372 184.107 439.658 254.882 480.423C325.657 521.189 139.127 642.617 139.127 642.617C139.127 642.617 384.118 664.735 459.301 618.505Z" fill="#0C787A"/>
<path fill-rule="evenodd" clip-rule="evenodd" d="M1490.32 485.467C1490.32 485.467 1484.36 485.467 1433.8 485.467C1350.46 485.467 1186.35 351.896 1070.59 323.447C1114.8 375.401 1105.72 453.809 1025.36 455.11C920.229 456.844 915.304 521.896 914.007 564.396C912.711 606.896 790.474 645.926 790.474 645.926L1507.69 515.824V485.467H1490.32Z" fill="#0C787A"/>
<path fill-rule="evenodd" clip-rule="evenodd" d="M-2.44366 427.355C41.7586 427.355 207.031 603.513 296.472 606.722C385.914 609.931 479.244 554.074 545.353 549.564C611.462 545.054 735.902 640.115 825.344 640.115C914.785 640.115 539.52 777.416 539.52 777.416H-2.44366V427.355Z" fill="#227F7F"/>
<path fill-rule="evenodd" clip-rule="evenodd" d="M227.901 645.926C245.4 630.227 285.454 615.829 316.175 606.549C309.694 606.896 303.083 606.982 296.602 606.722C207.031 603.513 41.7586 427.355 -2.44366 427.355C-2.44366 427.355 52.3878 497.87 49.0176 526.839C45.5177 555.722 1.44509 611.232 -2.44366 635.518V734.396C-2.44366 734.396 197.568 673.074 227.901 645.926Z" fill="#0B6B6B"/>
<path fill-rule="evenodd" clip-rule="evenodd" d="M825.344 640.115C738.495 640.115 618.591 550.431 551.186 549.477C548.075 564.309 538.742 592.151 513.076 608.283C476.781 631.008 424.024 660.151 433.616 697.273C443.079 734.482 617.684 734.482 641.016 734.482C644.387 734.482 652.294 732.834 663.571 730.059C763.512 690.334 879.397 640.115 825.344 640.115Z" fill="#0B6B6B"/>
<path fill-rule="evenodd" clip-rule="evenodd" d="M475.874 756.947C475.874 756.947 1239.5 449.559 1536.21 413.477C1671.67 396.998 1812.31 459.273 1812.31 459.273V849.753H501.799L475.874 756.947Z" fill="#32A0A0"/>
<path fill-rule="evenodd" clip-rule="evenodd" d="M1437.69 670.212C1365.75 762.584 1478.66 826.334 1478.66 826.334C1478.66 826.334 1490.06 835.268 1508.99 849.753H1812.31V459.273C1812.31 459.273 1707.18 412.697 1591.17 410.702C1703.43 516.171 1508.08 579.748 1437.69 670.212Z" fill="#258484"/>
<path fill-rule="evenodd" clip-rule="evenodd" d="M1155.24 626.844L1046.35 841.947H1258.94L1155.24 626.844Z" fill="#13514E"/>
<path fill-rule="evenodd" clip-rule="evenodd" d="M1259.85 658.069L1150.96 841.947H1363.55L1259.85 658.069Z" fill="#13514E"/>
<path fill-rule="evenodd" clip-rule="evenodd" d="M1352.92 586.426L1234.05 821.304H1466.21L1352.92 586.426Z" fill="#13514E"/>
<path fill-rule="evenodd" clip-rule="evenodd" d="M1545.28 674.982L1466.21 831.191H1620.59L1545.28 674.982Z" fill="#13514E"/>
<path fill-rule="evenodd" clip-rule="evenodd" d="M778.16 616.436L699.089 772.559H853.472L778.16 616.436Z" fill="#13514E"/>
<path fill-rule="evenodd" clip-rule="evenodd" d="M428.82 595.62L329.397 749.227H523.576L428.82 595.62Z" fill="#13514E"/>
<path fill-rule="evenodd" clip-rule="evenodd" d="M1759.38 672.918L1680.3 838.668H1834.69L1759.38 672.918Z" fill="#13514E"/>
<path fill-rule="evenodd" clip-rule="evenodd" d="M1641.98 645.926L1543.34 840.732H1735.96L1641.98 645.926Z" fill="#1D6660"/>
<path fill-rule="evenodd" clip-rule="evenodd" d="M1079.28 658.242L1002.15 810.549H1152.65L1079.28 658.242Z" fill="#1D7777"/>
<path fill-rule="evenodd" clip-rule="evenodd" d="M1331.92 674.115L1254.79 826.334H1405.29L1331.92 674.115Z" fill="#1D7777"/>
<path fill-rule="evenodd" clip-rule="evenodd" d="M1487.47 674.115L1410.34 826.334H1560.84L1487.47 674.115Z" fill="#1D7777"/>
<path fill-rule="evenodd" clip-rule="evenodd" d="M982.061 618.345L904.934 770.651H1055.43L982.061 618.345Z" fill="#13514E"/>
<path fill-rule="evenodd" clip-rule="evenodd" d="M879.941 609.166L787.389 792.003H968.087L879.941 609.166Z" fill="#1D7777"/>
<path fill-rule="evenodd" clip-rule="evenodd" d="M684.571 602.385L575.685 792.074H788.271L684.571 602.385Z" fill="#13514E"/>
<path fill-rule="evenodd" clip-rule="evenodd" d="M560.13 552.773L451.245 767.875H663.831L560.13 552.773Z" fill="#13514E"/>
<path fill-rule="evenodd" clip-rule="evenodd" d="M307.49 608.197L223.753 773.6H387.34L307.49 608.197Z" fill="#13514E"/>
<path fill-rule="evenodd" clip-rule="evenodd" d="M256.677 651.651L172.939 817.14H336.397L256.677 651.651Z" fill="#13514E"/>
<path fill-rule="evenodd" clip-rule="evenodd" d="M179.718 620.554L95.9802 785.957H259.567L179.718 620.554Z" fill="#13514E"/>
<path fill-rule="evenodd" clip-rule="evenodd" d="M91.0162 631.008L7.27826 796.498H170.865L91.0162 631.008Z" fill="#13514E"/>
<path fill-rule="evenodd" clip-rule="evenodd" d="M577.759 630.227L493.114 797.278H658.257L577.759 630.227Z" fill="#1D7777"/>
<path fill-rule="evenodd" clip-rule="evenodd" d="M347.674 642.457L254.603 826.334H436.338L347.674 642.457Z" fill="#1D7777"/>
<path fill-rule="evenodd" clip-rule="evenodd" d="M25.7206 678.96L-22.5 809.496H71.608L25.7206 678.96Z" fill="#1D7777"/>
<path fill-rule="evenodd" clip-rule="evenodd" d="M438.542 645.926L345.471 792.074H527.205L438.542 645.926Z" fill="#1D7777"/>
<path fill-rule="evenodd" clip-rule="evenodd" d="M915.247 743.686C763.769 781.882 423.368 833.498 423.368 833.498L2.18475 814.678C117.399 709.756 870.382 815.734 932.084 796.096C996.465 775.605 1060.48 831.278 1192.7 831.278C1285.12 831.278 1619.43 833.967 1812.31 835.615V834.748C1728.45 797.698 1255.18 809.074 1235.48 809.074C1113.63 808.987 1066.73 705.491 915.247 743.686Z" fill="#43A86C"/>
<path fill-rule="evenodd" clip-rule="evenodd" d="M-14.7861 806.658C-14.7861 806.658 399.669 745.751 560.404 745.751C721.139 745.751 1113.63 808.987 1235.48 808.987C1255.18 808.987 1713.02 827.549 1812.31 834.661V849.753H-2.44368L-14.7861 806.658Z" fill="#3D9963"/>
<path d="M931.252 770.062L985.25 759.739Z" fill="#3D9963"/>
<path fill-rule="evenodd" clip-rule="evenodd" d="M157.472 174.337C164.399 174.327 171.234 175.806 177.438 178.657C183.642 181.508 189.045 185.653 193.222 190.766C228.391 191.191 256.875 210.824 256.875 234.934C256.875 259.151 227.815 278.997 192.299 278.997C173.849 278.997 157.359 273.769 145.482 265.34C137.87 273.556 125.416 278.997 111.464 278.997C88.2849 278.997 69.375 264.274 69.375 246.138C69.375 228.003 88.2811 213.179 111.46 213.179C112.036 213.179 112.499 213.284 113.075 213.284C113.998 191.724 133.6 174.337 157.472 174.337Z" fill="#C4C4C4"/>
<path fill-rule="evenodd" clip-rule="evenodd" d="M149.972 170.867C156.899 170.857 163.734 172.336 169.938 175.187C176.142 178.038 181.545 182.184 185.722 187.297C220.891 187.721 249.375 207.355 249.375 231.464C249.375 255.681 220.315 275.527 184.799 275.527C166.349 275.527 149.859 270.299 137.982 261.87C130.37 270.087 117.916 275.527 103.964 275.527C80.7849 275.527 61.875 260.805 61.875 242.669C61.875 224.533 80.7811 209.71 103.96 209.71C104.536 209.71 104.999 209.814 105.575 209.814C106.498 188.254 126.1 170.867 149.972 170.867Z" fill="url(#paint0_linear)"/>
<path fill-rule="evenodd" clip-rule="evenodd" d="M1089.35 187.347C1096.27 187.337 1103.11 188.816 1109.31 191.667C1115.52 194.518 1120.92 198.663 1125.1 203.776C1160.27 204.201 1188.75 223.835 1188.75 247.944C1188.75 272.161 1159.69 292.007 1124.17 292.007C1105.72 292.007 1089.23 286.779 1077.36 278.35C1069.74 286.567 1057.29 292.007 1043.34 292.007C1020.16 292.007 1001.25 277.284 1001.25 259.149C1001.25 241.013 1020.16 226.189 1043.34 226.189C1043.91 226.189 1044.37 226.294 1044.95 226.294C1045.87 204.734 1065.48 187.347 1089.35 187.347Z" fill="#C4C4C4"/>
<path fill-rule="evenodd" clip-rule="evenodd" d="M1081.85 183.878C1088.77 183.868 1095.61 185.347 1101.81 188.198C1108.02 191.049 1113.42 195.194 1117.6 200.307C1152.77 200.732 1181.25 220.365 1181.25 244.474C1181.25 268.691 1152.19 288.538 1116.67 288.538C1098.22 288.538 1081.73 283.31 1069.86 274.881C1062.24 283.097 1049.79 288.538 1035.84 288.538C1012.66 288.538 993.75 273.815 993.75 255.679C993.75 237.543 1012.66 222.72 1035.84 222.72C1036.41 222.72 1036.87 222.824 1037.45 222.824C1038.37 201.265 1057.98 183.878 1081.85 183.878Z" fill="url(#paint1_linear)"/>
<path d="M814.687 139.101C814.687 116.658 794.247 97.9329 767.062 93.5528C767.062 93.0143 767.166 92.5139 767.166 91.9754C767.166 61.3144 735.168 36.4285 695.7 36.4285C665.713 36.437 640.093 50.8538 629.508 71.2068C623.36 68.3059 616.295 66.7684 609.089 66.7631C587.21 66.7631 569.539 80.5141 569.539 97.5174C569.532 102.515 571.092 107.44 574.087 111.871C562.749 113.21 552.41 117.646 544.951 124.371C537.491 131.096 533.406 139.665 533.438 148.519C533.438 169.012 554.801 185.612 581.157 185.612H757.762C761.61 185.61 765.434 185.142 769.094 184.226C782.13 181.714 793.702 175.907 801.965 167.729C810.228 159.55 814.707 149.473 814.687 139.101V139.101Z" fill="#D6D6D6"/>
<path d="M804.375 137.367C804.375 114.923 783.935 96.1982 756.749 91.8181C756.749 91.2796 756.854 90.7792 756.854 90.2407C756.854 59.5797 724.856 34.6938 685.388 34.6938C655.4 34.7023 629.78 49.1191 619.195 69.4721C613.047 66.5712 605.983 65.0337 598.777 65.0284C576.898 65.0284 559.226 78.7794 559.226 95.7827C559.219 100.78 560.78 105.705 563.775 110.136C552.437 111.475 542.098 115.911 534.638 122.636C527.178 129.362 523.093 137.93 523.125 146.784C523.125 167.277 544.488 183.877 570.844 183.877H747.449C751.297 183.875 755.121 183.408 758.782 182.491C771.818 179.98 783.39 174.172 791.653 165.994C799.916 157.816 804.395 147.738 804.375 137.367V137.367Z" fill="#F1F1F2"/>
<path d="M1506.43 122.099C1509.17 122.111 1511.9 122.258 1514.6 122.538C1514.6 122.379 1514.55 122.237 1514.55 122.099C1514.55 98.7335 1541.37 79.7959 1574.42 79.7959C1603.07 79.7959 1626.97 94.0127 1632.87 113.013C1641.12 108.468 1651.56 105.964 1662.35 105.938C1688.82 105.938 1710.28 120.832 1711.06 139.389C1715.84 138.301 1720.87 137.744 1725.93 137.742C1752.85 137.742 1774.69 153.167 1774.69 172.209C1774.69 191.251 1752.85 206.693 1725.93 206.693H1506.43C1473.36 206.706 1446.56 187.751 1446.56 164.377C1446.56 141.003 1473.36 122.099 1506.43 122.099Z" fill="#DAD7D7"/>
<path d="M1497.99 127.303C1500.73 127.315 1503.46 127.462 1506.16 127.742C1506.16 127.583 1506.11 127.441 1506.11 127.303C1506.11 103.938 1532.93 85 1565.98 85C1594.64 85 1618.53 99.2168 1624.43 118.217C1632.68 113.673 1643.12 111.168 1653.91 111.142C1680.38 111.142 1701.84 126.036 1702.62 144.593C1707.4 143.505 1712.43 142.948 1717.49 142.946C1744.41 142.946 1766.25 158.371 1766.25 177.413C1766.25 196.455 1744.42 211.897 1717.49 211.897H1497.99C1464.93 211.91 1438.12 192.955 1438.12 169.581C1438.12 146.207 1464.93 127.303 1497.99 127.303Z" fill="white"/>
<path fill-rule="evenodd" clip-rule="evenodd" d="M1501.05 121.429H1483.18C1456.25 121.429 1434.42 136.87 1434.42 155.913C1434.42 174.955 1456.26 190.38 1483.18 190.38C1488.24 190.377 1493.27 189.82 1498.05 188.732C1498.21 192.569 1499.26 196.249 1501.05 199.673V121.429ZM1505.45 206C1514.06 215.718 1529.32 222.184 1546.76 222.184C1557.55 222.158 1567.99 219.653 1576.23 215.109C1582.14 234.109 1606.03 248.326 1634.69 248.326C1667.74 248.326 1694.56 229.388 1694.56 206.022C1694.56 206.015 1694.56 206.007 1694.56 206H1505.45ZM1701.07 206C1701.61 206.013 1702.14 206.02 1702.68 206.022C1703.34 206.022 1703.99 206.015 1704.65 206H1701.07Z" fill="white"/>
<path d="M1648.05 666.034C1648.05 666.034 1654.17 673.911 1650.78 693.781C1647.39 713.65 1628.28 710.098 1626.91 731.281C1625.61 752.405 1632.23 750.87 1632.23 750.87C1632.23 750.87 1621.33 767.563 1626.24 783.017C1631.21 798.475 1640.52 772.865 1640.52 772.865L1643.15 793.99L1644.58 763.631L1651.78 795.705C1651.78 795.705 1657.05 792.192 1658.23 773.999C1659.42 755.807 1648.94 765.146 1646.8 746.409C1644.65 727.672 1648.93 738.986 1655.69 718.601C1662.45 698.216 1654.94 668.567 1648.05 666.034Z" fill="url(#paint2_linear)"/>
<path d="M1655.78 695.441C1655.78 695.441 1660.14 702.699 1656.03 713.43C1651.91 724.223 1648.28 710.807 1641.63 724.702C1634.97 738.597 1642.94 741.04 1642.94 741.04C1642.94 741.04 1633.35 745.537 1633.44 756.404C1633.53 767.27 1646.55 764.194 1643.49 771.712C1640.42 779.23 1632.05 764.912 1628.87 775.548C1625.69 786.184 1629.5 787.244 1629.5 787.244C1629.5 787.244 1620.15 787.628 1622.48 797.443C1624.82 807.259 1646.99 794.177 1646.99 794.177C1646.99 794.177 1649.59 810.369 1657.21 810.615C1664.82 810.861 1668.17 790.241 1668.17 790.241C1668.17 790.241 1678.41 792.757 1682.3 784.142C1686.19 775.527 1671.43 773.677 1671.43 773.677C1671.43 773.677 1678.75 774.475 1673.57 764.193C1668.4 753.912 1659.71 765.119 1654.23 761.133C1648.81 757.15 1665.6 754.383 1666.98 748.185C1668.42 741.925 1658.32 741.349 1658.32 741.349C1658.32 741.349 1664.16 737.73 1661.69 733.279C1659.22 728.829 1652.59 738.479 1650.61 734.17C1648.63 729.861 1657.28 731.264 1660.49 723.688C1663.7 716.112 1661.39 701.616 1655.78 695.441Z" fill="url(#paint3_linear)"/>
<path d="M1695.67 819.162L1652.87 793.368L1651.71 793.767L1650.97 790.684L1648.85 791.989L1644.76 790.921L1642.28 796.085L1606.87 818.104L1619.76 818.521L1638.03 804.813L1632.08 817.108L1641.18 817.839L1645.83 802.256L1654.37 819.514L1661.28 819.737L1648.31 797.091L1648.97 796.613L1651.13 797.869L1650.12 798.086L1667.26 818.244L1676.08 818.53L1662.29 804.286L1687.69 818.905L1695.67 819.162Z" fill="url(#paint4_linear)"/>
<path d="M1671.38 744.893C1671.36 745.339 1671.14 745.761 1670.77 746.065C1670.4 746.369 1669.9 746.531 1669.39 746.514C1668.88 746.498 1668.4 746.305 1668.05 745.977C1667.7 745.65 1667.52 745.215 1667.53 744.769C1667.55 744.322 1667.77 743.9 1668.14 743.596C1668.51 743.292 1669.01 743.13 1669.52 743.147C1670.03 743.163 1670.51 743.357 1670.86 743.684C1671.21 744.011 1671.4 744.446 1671.38 744.893Z" fill="#FFF197"/>
<path d="M1672.76 761.108C1672.75 761.554 1672.53 761.976 1672.15 762.28C1671.78 762.584 1671.29 762.746 1670.78 762.729C1670.52 762.721 1670.28 762.67 1670.05 762.577C1669.82 762.485 1669.61 762.354 1669.44 762.192C1669.26 762.03 1669.13 761.84 1669.04 761.633C1668.95 761.425 1668.91 761.205 1668.92 760.984C1668.93 760.763 1668.98 760.545 1669.09 760.344C1669.19 760.143 1669.34 759.962 1669.53 759.811C1669.71 759.661 1669.93 759.544 1670.16 759.467C1670.4 759.389 1670.65 759.354 1670.9 759.362C1671.41 759.379 1671.9 759.572 1672.24 759.899C1672.59 760.227 1672.78 760.661 1672.76 761.108V761.108Z" fill="#FFF197"/>
<path d="M1639.64 733.878C1639.63 734.143 1639.5 734.393 1639.28 734.573C1639.06 734.753 1638.77 734.849 1638.46 734.839C1638.16 734.829 1637.88 734.715 1637.67 734.521C1637.46 734.327 1637.35 734.069 1637.36 733.804C1637.37 733.54 1637.5 733.29 1637.72 733.11C1637.94 732.93 1638.24 732.834 1638.54 732.844C1638.84 732.853 1639.13 732.968 1639.33 733.162C1639.54 733.356 1639.65 733.613 1639.64 733.878V733.878Z" fill="#FFF197"/>
<path d="M1623.02 741.645C1623.01 741.909 1622.88 742.159 1622.66 742.34C1622.44 742.52 1622.15 742.615 1621.84 742.606C1621.54 742.596 1621.26 742.481 1621.05 742.287C1620.84 742.093 1620.73 741.836 1620.74 741.571C1620.75 741.307 1620.88 741.057 1621.1 740.876C1621.32 740.696 1621.62 740.601 1621.92 740.61C1622.22 740.62 1622.51 740.735 1622.71 740.929C1622.92 741.123 1623.03 741.38 1623.02 741.645V741.645Z" fill="#FFF197"/>
<path d="M1625.91 750.042C1625.91 750.23 1625.86 750.415 1625.77 750.587C1625.68 750.758 1625.55 750.912 1625.39 751.041C1625.24 751.169 1625.05 751.269 1624.85 751.334C1624.65 751.4 1624.44 751.43 1624.22 751.423C1623.79 751.409 1623.38 751.245 1623.08 750.966C1622.78 750.687 1622.62 750.316 1622.64 749.936C1622.65 749.556 1622.84 749.197 1623.16 748.938C1623.47 748.678 1623.89 748.541 1624.33 748.555C1624.54 748.562 1624.76 748.606 1624.95 748.684C1625.15 748.763 1625.32 748.874 1625.47 749.012C1625.62 749.15 1625.73 749.312 1625.81 749.489C1625.88 749.666 1625.92 749.854 1625.91 750.042V750.042Z" fill="#FFF197"/>
<path d="M1616.13 767.519C1616.12 767.708 1616.07 767.893 1615.98 768.064C1615.89 768.236 1615.77 768.39 1615.61 768.518C1615.45 768.646 1615.27 768.746 1615.07 768.812C1614.87 768.877 1614.65 768.908 1614.44 768.901C1614.22 768.894 1614.01 768.85 1613.81 768.771C1613.62 768.693 1613.44 768.581 1613.29 768.443C1613.15 768.305 1613.03 768.143 1612.96 767.966C1612.88 767.79 1612.84 767.602 1612.85 767.414C1612.87 767.033 1613.05 766.674 1613.37 766.415C1613.69 766.156 1614.11 766.018 1614.54 766.032C1614.76 766.039 1614.97 766.083 1615.17 766.162C1615.36 766.24 1615.54 766.352 1615.69 766.49C1615.83 766.628 1615.95 766.79 1616.02 766.967C1616.1 767.143 1616.13 767.331 1616.13 767.519V767.519Z" fill="#FFF197"/>
<path d="M1638.91 753.334C1638.9 753.483 1638.83 753.623 1638.7 753.724C1638.58 753.826 1638.41 753.88 1638.24 753.874C1638.07 753.869 1637.91 753.804 1637.8 753.695C1637.68 753.586 1637.62 753.441 1637.62 753.292C1637.63 753.143 1637.7 753.003 1637.83 752.902C1637.95 752.8 1638.12 752.746 1638.29 752.752C1638.46 752.757 1638.62 752.822 1638.73 752.931C1638.85 753.04 1638.91 753.185 1638.91 753.334Z" fill="#FFF197"/>
<path d="M1615.92 746.597C1615.91 746.746 1615.84 746.887 1615.72 746.988C1615.59 747.089 1615.43 747.143 1615.26 747.138C1615.09 747.132 1614.93 747.068 1614.81 746.959C1614.69 746.85 1614.63 746.705 1614.64 746.556C1614.64 746.407 1614.72 746.267 1614.84 746.165C1614.96 746.064 1615.13 746.01 1615.3 746.015C1615.47 746.021 1615.63 746.085 1615.75 746.194C1615.86 746.304 1615.92 746.448 1615.92 746.597V746.597Z" fill="#FFF197"/>
<path d="M1623.89 777.198C1623.88 777.346 1623.81 777.487 1623.69 777.588C1623.56 777.69 1623.4 777.744 1623.23 777.738C1623.06 777.733 1622.9 777.668 1622.78 777.559C1622.66 777.45 1622.6 777.305 1622.61 777.156C1622.61 777.007 1622.69 776.867 1622.81 776.765C1622.93 776.664 1623.1 776.61 1623.27 776.616C1623.44 776.621 1623.6 776.686 1623.72 776.795C1623.83 776.904 1623.9 777.049 1623.89 777.198V777.198Z" fill="#FFF197"/>
<path d="M1662.98 726.416C1663.14 726.64 1663.19 726.911 1663.13 727.169C1663.06 727.428 1662.88 727.652 1662.63 727.794C1662.37 727.935 1662.06 727.982 1661.77 727.924C1661.47 727.866 1661.22 727.708 1661.05 727.484C1660.89 727.26 1660.84 726.989 1660.9 726.731C1660.97 726.473 1661.15 726.248 1661.4 726.106C1661.66 725.965 1661.97 725.918 1662.26 725.976C1662.56 726.034 1662.81 726.193 1662.98 726.416V726.416Z" fill="#FFF197"/>
<path opacity="0.52" d="M1665.59 524.189C1669.33 474.136 1684.21 446.124 1684.21 446.124L1686.34 500.823C1679.78 510.812 1677.66 555.677 1677.66 555.677C1677.66 555.677 1691.13 587.066 1682.77 595.596C1674.33 604.124 1641.8 635.034 1637.2 653.011C1632.61 670.989 1686.33 714.142 1687.45 722.409C1688.56 730.676 1639.15 795.235 1639.15 795.235C1636.62 785.039 1666.16 758.498 1673.37 733.425C1680.58 708.308 1634.27 679.054 1620.47 652.471C1606.67 625.887 1661.85 574.243 1665.59 524.189Z" fill="#C4C4C4"/>
<path d="M70.8803 640.952C70.8803 640.952 60.8578 624.842 67.0255 609.527C73.1932 594.113 101.058 587.152 101.058 587.152C101.058 587.152 104.142 549.461 142.029 547.373C179.916 545.284 176.061 586.455 176.061 586.455C176.061 586.455 209.323 591.328 215.49 607.439C221.658 623.549 211.636 640.952 211.636 640.952C211.636 640.952 237.188 656.367 237.188 678.643C237.188 701.018 210.865 704.499 210.865 704.499C210.865 704.499 206.239 735.924 188.397 742.189C170.555 748.454 142.029 728.267 142.029 728.267C142.029 728.267 117.248 755.515 85.5286 738.709C63.8315 728.267 71.6513 705.891 71.6513 705.891C71.6513 705.891 43.7866 700.322 42.2446 677.25C40.7027 654.179 70.8803 640.952 70.8803 640.952Z" fill="#289F5C"/>
<path d="M113.767 826.735H161.111L147.986 728.291L174.33 694.552L144.049 714.24L139.455 654.133H134.767L131.486 688.307L117.705 679.46L130.83 698.195L126.236 731.587L104.486 716.929L123.611 742.95L113.767 826.735Z" fill="#524545"/>
<path d="M277.913 649.433C277.913 649.433 251.719 663.858 252.194 687.707C252.669 711.556 280.899 739.764 312.657 725.66C338.512 732.263 393.75 731.366 393.75 681.36C393.75 654.818 368.031 649.369 368.031 649.369C368.031 649.369 363.281 609.3 322.972 609.749C282.663 610.262 277.913 649.433 277.913 649.433Z" fill="#23AC8C"/>
<path d="M304.794 767.602H339.16L332.029 726.709L349.687 706.07H346.767L331.554 715.492L327.207 695.623L338.685 683.445L327.207 690.623L323.404 673.061L317.223 702.353L297.188 688.38L315.321 713.377L304.794 767.602Z" fill="#453F3F"/>
<path d="M1500.28 634.117H1505.53L1532.53 809.321H1473.94L1500.28 634.117Z" fill="#2D3E4F"/>
<path d="M1407.19 726.837H1598.44L1558.37 666.591H1576.92L1537.51 606.345H1552.22L1503.25 529.082L1455.05 606.345H1465.81L1428.05 665.534H1444.3L1407.19 726.837Z" fill="#346E7C"/>
</g>
<defs>
<linearGradient id="paint0_linear" x1="48830.6" y1="49064.8" x2="48830.6" y2="18642.3" gradientUnits="userSpaceOnUse">
<stop stop-color="#BBBDBF"/>
<stop offset="1" stop-color="#EAEBEC"/>
</linearGradient>
<linearGradient id="paint1_linear" x1="49762.5" y1="49077.9" x2="49762.5" y2="18655.3" gradientUnits="userSpaceOnUse">
<stop stop-color="#BBBDBF"/>
<stop offset="1" stop-color="#EAEBEC"/>
</linearGradient>
<linearGradient id="paint2_linear" x1="1641.06" y1="790.254" x2="1643.82" y2="705.009" gradientUnits="userSpaceOnUse">
<stop offset="0.0513513" stop-color="#E0A810"/>
<stop offset="0.8351" stop-color="#DE8126"/>
</linearGradient>
<linearGradient id="paint3_linear" x1="1653.92" y1="750.444" x2="1656.96" y2="656.56" gradientUnits="userSpaceOnUse">
<stop offset="0.0513513" stop-color="#E0A810"/>
<stop offset="0.8351" stop-color="#DE8126"/>
</linearGradient>
<linearGradient id="paint4_linear" x1="1651.47" y1="812.625" x2="1651.77" y2="803.558" gradientUnits="userSpaceOnUse">
<stop stop-color="#574109"/>
<stop offset="0.8676" stop-color="#B07E09"/>
</linearGradient>
<clipPath id="clip0">
<rect width="1800" height="850" fill="white"/>
</clipPath>
</defs>
</svg>
