<svg width="60" height="38" viewBox="0 0 60 38" fill="none" xmlns="http://www.w3.org/2000/svg">
<path d="M22.6001 27.9061C23.2744 28.7573 23.6116 30.0064 23.6116 31.6535C23.6116 33.295 22.9815 34.6215 21.7213 35.6329C20.4667 36.6389 18.7423 37.1418 16.548 37.1418C15.2768 37.1418 13.6518 37.0009 11.6731 36.719C7.7821 36.1165 5.27834 35.8153 4.16187 35.8153C3.04541 35.8153 2.2578 35.843 1.79906 35.8982C1.34031 35.948 0.740626 36.0088 0 36.0806L6.41691 1.06119H18.0403L12.7343 30.2441C13.1931 30.3159 13.6353 30.3518 14.0608 30.3518H15.3873C18.3554 30.3518 20.7596 29.5366 22.6001 27.9061ZM48.1186 18.9937L58.8383 18.0403C56.2903 23.6282 55.0163 29.6582 55.0163 36.1304C54.0657 36.8047 52.8912 37.1418 51.4928 37.1418C50.0945 37.1418 48.9531 36.8157 48.0688 36.1635C47.1845 35.5058 46.6539 34.8426 46.477 34.1738C45.5927 35.0913 44.4348 35.8153 43.0033 36.3459C41.5718 36.8765 40.0933 37.1418 38.5678 37.1418C37.0479 37.1418 35.6246 36.8931 34.2982 36.3957C32.9717 35.9038 31.7972 35.1079 30.7747 34.008C28.5086 31.6037 27.3755 28.1217 27.3755 23.5618C27.3755 16.4872 29.2685 10.8275 33.0546 6.58272C36.9456 2.19424 42.34 0 49.2378 0C54.0132 0 57.2493 1.23806 58.9461 3.71418C59.4767 4.4935 59.742 5.35019 59.742 6.28426C59.742 7.22386 59.5375 8.09161 59.1285 8.88751C58.725 9.6834 58.2054 10.3992 57.5698 11.0348C56.0444 12.4497 54.3448 13.1572 52.4711 13.1572C51.7305 13.1572 51.0064 13.0328 50.299 12.7841C50.4372 11.7229 50.5062 10.5733 50.5062 9.3352C50.5062 8.09714 50.462 7.19623 50.3736 6.63247C50.2852 6.06871 50.1359 5.55469 49.9259 5.09042C49.4672 4.13976 48.7321 3.66444 47.7206 3.66444C46.7147 3.66444 45.6535 4.20333 44.537 5.2811C43.4261 6.35888 42.4284 7.7821 41.5441 9.55075C39.5986 13.5137 38.6258 17.8828 38.6258 22.6582C38.6258 24.8524 39.0487 26.7261 39.8943 28.2792C40.8173 29.976 42.0913 30.8244 43.7163 30.8244C44.2855 30.8244 44.8244 30.6835 45.3329 30.4016C45.8469 30.1197 46.2117 29.8737 46.4273 29.6637L48.1186 18.9937Z" fill="#3C3C3C"/>
</svg>
