<svg width="135" height="92" viewBox="0 0 135 92" fill="none" xmlns="http://www.w3.org/2000/svg">
<path d="M32.512 83.333H27.337C27.154 74.598 26.65 66.386 25.826 58.691H25.78L17.901 83.333H13.961L6.129 58.691H6.084C5.503 66.079 5.137 74.293 4.985 83.333H0.267998C0.571998 72.34 1.336 62.034 2.557 52.414H8.971L16.436 75.133H16.482L23.993 52.414H30.13C31.474 63.682 32.268 73.989 32.512 83.333V83.333ZM54.955 60.521C52.848 71.955 50.068 80.263 46.618 85.449C43.93 89.441 40.985 91.439 37.778 91.439C36.923 91.439 35.868 91.181 34.618 90.669V87.912C35.229 88 35.946 88.05 36.77 88.05C38.268 88.05 39.472 87.638 40.39 86.812C41.488 85.806 42.037 84.675 42.037 83.424C42.037 82.566 41.609 80.812 40.755 78.156L35.076 60.52H40.16L44.236 73.71C45.152 76.705 45.534 78.796 45.381 79.987C47.61 74.034 49.167 67.543 50.054 60.519H54.955V60.521V60.521Z" fill="#3C3C3C"/>
<path d="M123.84 83.333H109.14V52.414H114.085V79.527H123.84V83.333ZM105.292 84.08L99.608 81.275C100.112 80.861 100.594 80.413 101.028 79.894C103.444 77.056 104.649 72.859 104.649 67.3C104.649 57.071 100.635 51.954 92.604 51.954C88.666 51.954 85.594 53.252 83.397 55.849C80.983 58.689 79.778 62.871 79.778 68.4C79.778 73.835 80.846 77.822 82.983 80.351C84.938 82.642 87.885 83.789 91.826 83.789C93.296 83.789 94.645 83.609 95.874 83.246L103.274 87.554L105.292 84.08ZM86.879 77.146C85.627 75.132 85.001 71.898 85.001 67.439C85.001 59.654 87.366 55.757 92.101 55.757C94.576 55.757 96.39 56.689 97.55 58.549C98.8 60.566 99.429 63.771 99.429 68.168C99.429 76.017 97.062 79.942 92.33 79.942C89.854 79.943 88.04 79.014 86.879 77.146V77.146ZM77.623 74.763C77.623 77.385 76.661 79.536 74.739 81.221C72.815 82.899 70.235 83.74 67.002 83.74C63.978 83.74 61.046 82.774 58.208 80.852L59.537 78.197C61.979 79.42 64.19 80.028 66.175 80.028C68.038 80.028 69.494 79.615 70.55 78.796C71.605 77.974 72.234 76.821 72.234 75.363C72.234 73.526 70.953 71.956 68.603 70.641C66.436 69.451 62.102 66.963 62.102 66.963C59.753 65.251 58.577 63.413 58.577 60.385C58.577 57.879 59.454 55.856 61.209 54.317C62.966 52.772 65.233 52.002 68.012 52.002C70.882 52.002 73.491 52.771 75.841 54.293L74.649 56.949C72.639 56.095 70.655 55.668 68.698 55.668C67.113 55.668 65.889 56.049 65.038 56.814C64.18 57.576 63.651 58.551 63.651 59.747C63.651 61.575 64.959 63.165 67.373 64.506C69.569 65.698 74.011 68.229 74.011 68.229C76.42 69.938 77.623 71.759 77.623 74.763" fill="#3C3C3C"/>
<path d="M130.048 42.058C127.058 41.982 124.743 42.283 122.8 43.105C122.239 43.329 121.347 43.329 121.269 44.038C121.572 44.338 121.607 44.822 121.87 45.236C122.318 45.983 123.099 46.988 123.812 47.512C124.595 48.112 125.381 48.706 126.205 49.229C127.658 50.128 129.305 50.651 130.721 51.547C131.546 52.068 132.366 52.742 133.192 53.303C133.598 53.602 133.858 54.087 134.385 54.274V54.16C134.121 53.824 134.046 53.338 133.787 52.964L132.665 51.882C131.581 50.426 130.234 49.155 128.781 48.111C127.585 47.287 124.969 46.167 124.484 44.789L124.408 44.713C125.23 44.636 126.205 44.338 126.986 44.109C128.257 43.774 129.416 43.85 130.72 43.515C131.32 43.365 131.915 43.177 132.517 42.992V42.655C131.841 41.982 131.359 41.088 130.648 40.452C128.746 38.809 126.65 37.202 124.484 35.857C123.324 35.108 121.832 34.626 120.597 33.989C120.152 33.764 119.402 33.653 119.14 33.279C118.47 32.457 118.093 31.375 117.607 30.402C116.527 28.349 115.478 26.071 114.546 23.9C113.872 22.444 113.462 20.99 112.64 19.643C108.79 13.293 104.609 9.447 98.183 5.672C96.802 4.886 95.159 4.551 93.404 4.139L90.601 3.991C90.003 3.729 89.404 3.018 88.882 2.682C86.75 1.338 81.261 -1.575 79.693 2.271C78.683 4.702 81.187 7.092 82.047 8.325C82.682 9.181 83.505 10.155 83.949 11.127C84.212 11.762 84.286 12.436 84.549 13.107C85.147 14.751 85.706 16.58 86.492 18.114C86.902 18.896 87.349 19.718 87.873 20.426C88.173 20.84 88.695 21.023 88.809 21.698C88.288 22.442 88.247 23.565 87.948 24.499C86.604 28.72 87.129 33.949 89.034 37.051C89.63 37.985 91.052 40.041 92.954 39.253C94.638 38.581 94.265 36.452 94.749 34.585C94.86 34.134 94.787 33.838 95.011 33.542V33.615C95.532 34.66 96.058 35.667 96.541 36.715C97.7 38.544 99.718 40.45 101.399 41.717C102.294 42.393 103.003 43.549 104.124 43.962V43.85H104.05C103.823 43.515 103.491 43.365 103.193 43.105C102.519 42.432 101.773 41.61 101.25 40.864C99.684 38.771 98.298 36.454 97.068 34.063C96.466 32.903 95.947 31.635 95.462 30.477C95.236 30.03 95.236 29.356 94.861 29.131C94.299 29.952 93.48 30.663 93.07 31.669C92.359 33.278 92.285 35.257 92.021 37.315L91.874 37.387C90.684 37.088 90.27 35.857 89.818 34.812C88.699 32.158 88.511 27.898 89.482 24.836C89.742 24.053 90.867 21.587 90.418 20.841C90.193 20.126 89.445 19.719 89.035 19.156C88.553 18.448 88.025 17.552 87.689 16.766C86.793 14.675 86.342 12.358 85.377 10.268C84.926 9.294 84.143 8.286 83.509 7.389C82.797 6.381 82.014 5.671 81.451 4.476C81.265 4.065 81.004 3.393 81.303 2.946C81.376 2.646 81.528 2.534 81.826 2.459C82.31 2.05 83.693 2.57 84.178 2.795C85.563 3.355 86.721 3.878 87.877 4.662C88.4 5.037 88.961 5.747 89.632 5.934H90.418C91.611 6.194 92.956 6.006 94.079 6.344C96.058 6.98 97.851 7.913 99.459 8.92C104.352 12.023 108.387 16.432 111.111 21.698C111.558 22.556 111.748 23.342 112.156 24.237C112.943 26.069 113.916 27.937 114.697 29.73C115.482 31.485 116.23 33.277 117.351 34.735C117.91 35.519 120.156 35.93 121.163 36.341C121.908 36.676 123.068 36.974 123.74 37.385C125.011 38.168 126.277 39.067 127.472 39.928C128.067 40.376 129.937 41.31 130.048 42.058V42.058ZM91.942 9.594C91.4263 9.58864 90.9121 9.65186 90.413 9.782V9.857H90.485C90.786 10.454 91.309 10.868 91.682 11.389C91.983 11.988 92.244 12.582 92.539 13.18L92.611 13.106C93.138 12.733 93.4 12.135 93.4 11.238C93.173 10.974 93.138 10.716 92.949 10.454C92.729 10.08 92.244 9.894 91.942 9.594" fill="#3C3C3C"/>
<path d="M133.606 83.328H134.38V79.54H133.219L132.272 82.125L131.243 79.54H130.125V83.328H130.856V80.446H130.897L131.975 83.328H132.532L133.606 80.446V83.328ZM127.371 83.328H128.19V80.182H129.262V79.539H126.254V80.182H127.369L127.371 83.328Z" fill="#3C3C3C"/>
</svg>
